{"glyphs":{"0":{"ha":657,"x_min":63,"x_max":593,"o":"m 568 442 l 593 417 l 593 63 q 530 0 581 13 l 492 101 l 492 366 l 568 442 m 505 0 l 126 0 q 63 63 76 13 l 164 101 l 467 101 l 505 0 m 63 88 l 63 417 l 88 442 l 164 366 l 164 126 l 63 88 m 467 808 l 165 808 l 64 846 q 128 909 77 896 l 505 909 l 467 808 m 164 783 l 164 543 l 88 467 l 63 492 l 63 821 l 164 783 m 492 543 l 492 808 l 530 909 q 593 846 581 896 l 593 492 l 568 467 l 492 543 z "},"1":{"ha":227,"x_min":63,"x_max":164,"o":"m 139 442 l 164 417 l 164 63 q 101 0 152 13 l 63 101 l 63 366 l 139 442 m 63 543 l 63 808 l 101 909 q 164 846 152 896 l 164 492 l 139 467 l 63 543 z "},"2":{"ha":657,"x_min":63,"x_max":593,"o":"m 492 505 l 543 455 l 492 404 l 164 404 l 114 455 l 164 505 l 492 505 m 543 0 l 126 0 q 63 63 76 13 l 164 101 l 505 101 l 543 0 m 63 88 l 63 417 l 88 442 l 164 366 l 164 126 l 63 88 m 467 808 l 165 808 l 64 846 q 128 909 77 896 l 505 909 l 467 808 m 492 543 l 492 808 l 530 909 q 593 846 581 896 l 593 492 l 568 467 l 492 543 z "},"3":{"ha":657,"x_min":63,"x_max":593,"o":"m 492 505 l 543 455 l 492 404 l 164 404 l 114 455 l 164 505 l 492 505 m 568 442 l 593 417 l 593 63 q 530 0 581 13 l 492 101 l 492 366 l 568 442 m 505 0 l 126 0 q 63 63 76 13 l 164 101 l 467 101 l 505 0 m 467 808 l 165 808 l 64 846 q 128 909 77 896 l 505 909 l 467 808 m 492 543 l 492 808 l 530 909 q 593 846 581 896 l 593 492 l 568 467 l 492 543 z "},"4":{"ha":657,"x_min":63,"x_max":593,"o":"m 492 505 l 543 455 l 492 404 l 164 404 l 114 455 l 164 505 l 492 505 m 568 442 l 593 417 l 593 63 q 530 0 581 13 l 492 101 l 492 366 l 568 442 m 164 821 l 164 543 l 88 467 l 63 492 l 63 859 l 164 821 m 492 543 l 492 808 l 530 909 q 593 846 581 896 l 593 492 l 568 467 l 492 543 z "},"5":{"ha":657,"x_min":63,"x_max":593,"o":"m 492 505 l 543 455 l 492 404 l 164 404 l 114 455 l 164 505 l 492 505 m 568 442 l 593 417 l 593 63 q 530 0 581 13 l 492 101 l 492 366 l 568 442 m 505 0 l 126 0 q 63 63 76 13 l 164 101 l 467 101 l 505 0 m 505 808 l 165 808 l 64 846 q 128 909 77 896 l 543 909 l 505 808 m 164 783 l 164 543 l 88 467 l 63 492 l 63 821 l 164 783 z "},"6":{"ha":657,"x_min":63,"x_max":593,"o":"m 492 505 l 543 455 l 492 404 l 164 404 l 114 455 l 164 505 l 492 505 m 568 442 l 593 417 l 593 63 q 530 0 581 13 l 492 101 l 492 366 l 568 442 m 505 0 l 126 0 q 63 63 76 13 l 164 101 l 467 101 l 505 0 m 63 88 l 63 417 l 88 442 l 164 366 l 164 126 l 63 88 m 505 808 l 165 808 l 64 846 q 128 909 77 896 l 543 909 l 505 808 m 164 783 l 164 543 l 88 467 l 63 492 l 63 821 l 164 783 z "},"7":{"ha":657,"x_min":63,"x_max":593,"o":"m 568 442 l 593 417 l 593 63 q 530 0 581 13 l 492 101 l 492 366 l 568 442 m 467 808 l 165 808 l 64 846 q 128 909 77 896 l 505 909 l 467 808 m 164 783 l 164 543 l 88 467 l 63 492 l 63 821 l 164 783 m 492 543 l 492 808 l 530 909 q 593 846 581 896 l 593 492 l 568 467 l 492 543 z "},"8":{"ha":657,"x_min":63,"x_max":593,"o":"m 492 505 l 543 455 l 492 404 l 164 404 l 114 455 l 164 505 l 492 505 m 568 442 l 593 417 l 593 63 q 530 0 581 13 l 492 101 l 492 366 l 568 442 m 505 0 l 126 0 q 63 63 76 13 l 164 101 l 467 101 l 505 0 m 63 88 l 63 417 l 88 442 l 164 366 l 164 126 l 63 88 m 467 808 l 165 808 l 64 846 q 128 909 77 896 l 505 909 l 467 808 m 164 783 l 164 543 l 88 467 l 63 492 l 63 821 l 164 783 m 492 543 l 492 808 l 530 909 q 593 846 581 896 l 593 492 l 568 467 l 492 543 z "},"9":{"ha":657,"x_min":63,"x_max":593,"o":"m 492 505 l 543 455 l 492 404 l 164 404 l 114 455 l 164 505 l 492 505 m 568 442 l 593 417 l 593 63 q 530 0 581 13 l 492 101 l 492 366 l 568 442 m 505 0 l 126 0 q 63 63 76 13 l 164 101 l 467 101 l 505 0 m 467 808 l 165 808 l 64 846 q 128 909 77 896 l 505 909 l 467 808 m 164 783 l 164 543 l 88 467 l 63 492 l 63 821 l 164 783 m 492 543 l 492 808 l 530 909 q 593 846 581 896 l 593 492 l 568 467 l 492 543 z "}," ":{"ha":379,"x_min":0,"x_max":0,"o":""},"!":{"ha":227,"x_min":63,"x_max":164,"o":"m 139 442 l 164 417 l 164 202 l 63 202 l 63 366 l 139 442 m 63 543 l 63 808 l 101 909 q 164 846 152 896 l 164 492 l 139 467 l 63 543 m 164 0 l 63 0 l 63 101 l 164 101 l 164 0 z "},"\"":{"ha":431,"x_min":63,"x_max":367,"o":"m 164 707 l 114 657 l 63 707 l 63 909 l 164 909 l 164 707 m 367 708 l 317 658 l 266 708 l 266 910 l 367 910 l 367 708 z "},"#":{"ha":682,"x_min":63,"x_max":619,"o":"m 366 606 l 417 556 l 366 505 l 316 505 l 265 556 l 316 606 l 366 606 m 366 404 l 417 354 l 366 303 l 316 303 l 265 354 l 316 404 l 366 404 m 189 480 l 240 530 l 290 480 l 290 429 l 240 379 l 189 429 l 189 480 m 391 480 l 442 530 l 492 480 l 492 429 l 442 379 l 391 429 l 391 480 m 189 707 l 240 758 l 290 707 l 290 631 l 240 581 l 189 631 l 189 707 m 391 707 l 442 758 l 492 707 l 492 631 l 442 581 l 391 631 l 391 707 m 391 279 l 442 330 l 492 279 l 492 202 l 442 152 l 391 202 l 391 279 m 189 278 l 240 328 l 290 278 l 290 201 l 240 150 l 189 201 l 189 278 m 164 404 l 215 354 l 164 303 l 114 303 l 63 354 l 114 404 l 164 404 m 568 403 l 619 352 l 568 302 l 518 302 l 467 352 l 518 403 l 568 403 m 568 606 l 619 556 l 568 505 l 518 505 l 467 556 l 518 606 l 568 606 m 164 605 l 215 554 l 164 504 l 114 504 l 63 554 l 114 605 l 164 605 z "},"$":{"ha":657,"x_min":63,"x_max":593,"o":"m 492 505 l 543 455 l 492 404 l 164 404 l 114 455 l 164 505 l 492 505 m 568 442 l 593 417 l 593 63 q 530 0 581 13 l 492 101 l 492 366 l 568 442 m 505 0 l 126 0 q 63 63 76 13 l 164 101 l 467 101 l 505 0 m 164 783 l 164 543 l 88 467 l 63 492 l 63 821 l 164 783 m 165 808 l 64 846 q 128 909 77 896 l 530 909 q 593 846 581 896 l 492 808 l 165 808 m 290 947 l 290 1010 l 341 1061 l 391 1010 l 391 947 l 290 947 m 290 543 l 290 770 l 391 770 l 391 543 l 290 543 m 290 139 l 290 366 l 391 366 l 391 139 l 290 139 m 391 -38 l 391 -101 l 341 -152 l 290 -101 l 290 -38 l 391 -38 z "},"%":{"ha":758,"x_min":63,"x_max":694,"o":"m 393 604 l 543 909 q 644 859 619 909 l 449 467 l 393 467 l 393 604 m 365 306 l 215 0 q 114 51 139 0 l 308 442 l 365 442 l 365 306 m 240 808 l 164 808 l 63 846 q 126 909 76 896 l 278 909 l 240 808 m 164 783 l 164 707 l 126 606 q 63 669 76 619 l 63 821 l 164 783 m 189 707 l 265 707 l 366 669 q 303 606 354 619 l 152 606 l 189 707 m 265 732 l 265 808 l 303 909 q 366 846 354 896 l 366 694 l 265 732 m 593 126 l 593 202 l 631 303 q 694 240 682 290 l 694 88 l 593 126 m 568 202 l 492 202 l 391 240 q 455 303 404 290 l 606 303 l 568 202 m 492 177 l 492 101 l 455 0 q 391 63 404 13 l 391 215 l 492 177 m 518 101 l 593 101 l 694 63 q 631 0 682 13 l 480 0 l 518 101 z "},"&":{"ha":707,"x_min":63,"x_max":644,"o":"m 492 505 l 543 455 l 492 404 l 164 404 l 114 455 l 164 505 l 492 505 m 568 442 l 593 417 l 593 126 l 530 126 l 492 164 l 492 366 l 568 442 m 619 0 l 126 0 q 63 63 76 13 l 164 101 l 568 101 l 644 25 l 619 0 m 63 88 l 63 417 l 88 442 l 164 366 l 164 126 l 63 88 m 417 758 l 215 758 l 114 795 q 177 859 126 846 l 455 859 l 417 758 m 215 732 l 215 593 l 139 518 l 114 543 l 114 770 l 215 732 m 442 593 l 442 758 l 480 859 q 543 795 530 846 l 543 543 l 518 518 l 442 593 m 593 -25 l 593 -88 l 568 -114 l 492 -38 l 492 -25 l 593 -25 z "},"'":{"ha":227,"x_min":63,"x_max":164,"o":"m 164 707 l 114 657 l 63 707 l 63 909 l 164 909 l 164 707 z "},"(":{"ha":442,"x_min":63,"x_max":379,"o":"m 328 808 l 189 808 l 139 859 l 189 909 l 328 909 l 379 859 l 328 808 m 88 467 l 63 492 l 63 783 l 126 846 l 164 808 l 164 543 l 88 467 m 379 51 l 328 0 l 189 0 l 139 51 l 189 101 l 328 101 l 379 51 m 164 366 l 164 101 l 126 63 l 63 126 l 63 417 l 88 442 l 164 366 z "},")":{"ha":442,"x_min":63,"x_max":379,"o":"m 114 101 l 253 101 l 303 51 l 253 0 l 114 0 l 63 51 l 114 101 m 354 442 l 379 417 l 379 126 l 316 63 l 278 101 l 278 366 l 354 442 m 63 859 l 114 909 l 253 909 l 303 859 l 253 808 l 114 808 l 63 859 m 278 543 l 278 808 l 316 846 l 379 783 l 379 492 l 354 467 l 278 543 z "},"*":{"ha":543,"x_min":63,"x_max":480,"o":"m 221 543 l 221 644 l 271 694 l 322 644 l 322 543 l 410 593 l 480 574 l 461 505 l 374 455 l 461 404 l 480 335 l 410 316 l 322 366 l 322 265 l 271 215 l 221 265 l 221 366 l 133 316 l 63 335 l 82 404 l 169 455 l 82 505 l 63 574 l 133 593 l 221 543 z "},"+":{"ha":556,"x_min":63,"x_max":492,"o":"m 227 505 l 227 619 l 278 669 l 328 619 l 328 505 l 442 505 l 492 455 l 442 404 l 328 404 l 328 290 l 278 240 l 227 290 l 227 404 l 114 404 l 63 455 l 114 505 l 227 505 z "},",":{"ha":227,"x_min":63,"x_max":164,"o":"m 164 -101 l 114 -152 l 63 -101 l 63 101 l 164 101 l 164 -101 z "},"-":{"ha":556,"x_min":63,"x_max":492,"o":"m 442 505 l 492 455 l 442 404 l 114 404 l 63 455 l 114 505 l 442 505 z "},".":{"ha":227,"x_min":63,"x_max":164,"o":"m 164 0 l 63 0 l 63 101 l 164 101 l 164 0 z "},"/":{"ha":657,"x_min":63,"x_max":593,"o":"m 342 604 l 492 909 q 593 859 568 909 l 399 467 l 342 467 l 342 604 m 314 306 l 164 0 q 63 51 88 0 l 258 442 l 314 442 l 314 306 z "},":":{"ha":227,"x_min":63,"x_max":164,"o":"m 164 202 l 63 202 l 63 303 l 164 303 l 164 202 m 164 606 l 63 606 l 63 707 l 164 707 l 164 606 z "},";":{"ha":227,"x_min":63,"x_max":164,"o":"m 164 606 l 63 606 l 63 707 l 164 707 l 164 606 m 164 -101 l 114 -152 l 63 -101 l 63 101 l 164 101 l 164 -101 z "},"<":{"ha":467,"x_min":63,"x_max":404,"o":"m 202 467 l 63 467 l 316 720 l 366 720 l 404 670 l 202 467 m 404 239 l 366 189 l 316 189 l 63 442 l 202 442 l 404 239 z "},"=":{"ha":556,"x_min":63,"x_max":492,"o":"m 442 606 l 492 556 l 442 505 l 114 505 l 63 556 l 114 606 l 442 606 m 442 403 l 492 352 l 442 302 l 114 302 l 63 352 l 114 403 l 442 403 z "},">":{"ha":467,"x_min":63,"x_max":404,"o":"m 63 670 l 101 720 l 152 720 l 404 467 l 265 467 l 63 670 m 265 442 l 404 442 l 152 189 l 101 189 l 63 239 l 265 442 z "},"?":{"ha":657,"x_min":63,"x_max":593,"o":"m 492 505 l 543 455 l 492 404 l 164 404 l 114 455 l 164 505 l 492 505 m 63 202 l 63 417 l 88 442 l 164 366 l 164 202 l 63 202 m 467 808 l 165 808 l 64 846 q 128 909 77 896 l 505 909 l 467 808 m 492 543 l 492 808 l 530 909 q 593 846 581 896 l 593 492 l 568 467 l 492 543 m 164 0 l 63 0 l 63 101 l 164 101 l 164 0 z "},"@":{"ha":657,"x_min":63,"x_max":593,"o":"m 568 442 l 593 417 l 593 265 q 530 202 581 215 l 492 303 l 492 366 l 568 442 m 505 0 l 126 0 q 63 63 76 13 l 164 101 l 467 101 l 505 0 m 63 88 l 63 417 l 88 442 l 164 366 l 164 126 l 63 88 m 467 808 l 165 808 l 64 846 q 128 909 77 896 l 505 909 l 467 808 m 164 783 l 164 543 l 88 467 l 63 492 l 63 821 l 164 783 m 492 543 l 492 808 l 530 909 q 593 846 581 896 l 593 492 l 568 467 l 492 543 m 505 202 l 328 201 q 265 264 278 213 l 366 303 l 467 303 l 505 202 m 265 290 l 265 417 l 290 442 l 366 366 l 366 328 l 265 290 m 366 581 l 366 543 l 290 467 l 265 492 l 265 619 l 366 581 m 467 606 l 366 606 l 265 645 q 328 708 278 696 l 467 707 l 467 606 z "},"A":{"ha":657,"x_min":63,"x_max":593,"o":"m 492 505 l 543 455 l 492 404 l 164 404 l 114 455 l 164 505 l 492 505 m 568 442 l 593 417 l 593 63 q 530 0 581 13 l 492 101 l 492 366 l 568 442 m 467 808 l 165 808 l 64 846 q 128 909 77 896 l 505 909 l 467 808 m 164 783 l 164 543 l 88 467 l 63 492 l 63 821 l 164 783 m 492 543 l 492 808 l 530 909 q 593 846 581 896 l 593 492 l 568 467 l 492 543 m 164 366 l 164 101 l 126 0 q 63 63 76 13 l 63 417 l 88 442 l 164 366 z "},"B":{"ha":657,"x_min":63,"x_max":593,"o":"m 492 505 l 543 455 l 492 404 l 164 404 l 114 455 l 164 505 l 492 505 m 63 88 l 63 417 l 88 442 l 164 366 l 164 126 l 63 88 m 467 808 l 164 808 l 63 846 l 63 909 l 467 909 l 518 859 l 467 808 m 164 783 l 164 543 l 88 467 l 63 492 l 63 821 l 164 783 m 492 543 l 492 808 l 530 846 l 593 783 l 593 492 l 568 467 l 492 543 m 568 442 l 593 417 l 593 126 l 530 63 l 492 101 l 492 366 l 568 442 m 516 51 l 466 0 l 63 0 l 63 63 l 164 101 l 466 101 l 516 51 z "},"C":{"ha":606,"x_min":63,"x_max":543,"o":"m 543 0 l 126 0 q 63 63 76 13 l 164 101 l 505 101 l 543 0 m 63 88 l 63 417 l 88 442 l 164 366 l 164 126 l 63 88 m 505 808 l 165 808 l 64 846 q 128 909 77 896 l 543 909 l 505 808 m 164 783 l 164 543 l 88 467 l 63 492 l 63 821 l 164 783 z "},"D":{"ha":657,"x_min":63,"x_max":593,"o":"m 63 88 l 63 417 l 88 442 l 164 366 l 164 126 l 63 88 m 467 808 l 164 808 l 63 846 l 63 909 l 467 909 l 518 859 l 467 808 m 164 783 l 164 543 l 88 467 l 63 492 l 63 821 l 164 783 m 492 543 l 492 808 l 530 846 l 593 783 l 593 492 l 568 467 l 492 543 m 568 442 l 593 417 l 593 126 l 530 63 l 492 101 l 492 366 l 568 442 m 516 51 l 466 0 l 63 0 l 63 63 l 164 101 l 466 101 l 516 51 z "},"E":{"ha":606,"x_min":63,"x_max":543,"o":"m 492 505 l 543 455 l 492 404 l 164 404 l 114 455 l 164 505 l 492 505 m 543 0 l 126 0 q 63 63 76 13 l 164 101 l 505 101 l 543 0 m 63 88 l 63 417 l 88 442 l 164 366 l 164 126 l 63 88 m 505 808 l 165 808 l 64 846 q 128 909 77 896 l 543 909 l 505 808 m 164 783 l 164 543 l 88 467 l 63 492 l 63 821 l 164 783 z "},"F":{"ha":606,"x_min":63,"x_max":543,"o":"m 492 505 l 543 455 l 492 404 l 164 404 l 114 455 l 164 505 l 492 505 m 505 808 l 165 808 l 64 846 q 128 909 77 896 l 543 909 l 505 808 m 164 783 l 164 543 l 88 467 l 63 492 l 63 821 l 164 783 m 164 366 l 164 101 l 126 0 q 63 63 76 13 l 63 417 l 88 442 l 164 366 z "},"G":{"ha":657,"x_min":63,"x_max":593,"o":"m 492 505 l 543 455 l 492 404 l 379 404 l 328 455 l 379 505 l 492 505 m 568 442 l 593 417 l 593 63 q 530 0 581 13 l 492 101 l 492 366 l 568 442 m 505 0 l 126 0 q 63 63 76 13 l 164 101 l 467 101 l 505 0 m 63 88 l 63 417 l 88 442 l 164 366 l 164 126 l 63 88 m 505 808 l 165 808 l 64 846 q 128 909 77 896 l 543 909 l 505 808 m 164 783 l 164 543 l 88 467 l 63 492 l 63 821 l 164 783 z "},"H":{"ha":657,"x_min":63,"x_max":593,"o":"m 492 505 l 543 455 l 492 404 l 164 404 l 114 455 l 164 505 l 492 505 m 568 442 l 593 417 l 593 63 q 530 0 581 13 l 492 101 l 492 366 l 568 442 m 492 543 l 492 808 l 530 909 q 593 846 581 896 l 593 492 l 568 467 l 492 543 m 164 366 l 164 101 l 126 0 q 63 63 76 13 l 63 417 l 88 442 l 164 366 m 88 455 l 63 480 l 63 833 q 126 896 76 884 l 164 795 l 164 530 l 88 455 z "},"I":{"ha":227,"x_min":63,"x_max":164,"o":"m 63 543 l 63 808 l 101 909 q 164 846 152 896 l 164 492 l 139 467 l 63 543 m 139 455 l 164 429 l 164 76 q 101 13 152 25 l 63 114 l 63 379 l 139 455 z "},"J":{"ha":657,"x_min":63,"x_max":593,"o":"m 568 442 l 593 417 l 593 63 q 530 0 581 13 l 492 101 l 492 366 l 568 442 m 505 0 l 126 0 q 63 63 76 13 l 164 101 l 467 101 l 505 0 m 63 88 l 63 417 l 88 442 l 164 366 l 164 126 l 63 88 m 492 543 l 492 808 l 530 909 q 593 846 581 896 l 593 492 l 568 467 l 492 543 z "},"K":{"ha":657,"x_min":63,"x_max":593,"o":"m 492 505 l 543 455 l 492 404 l 164 404 l 114 455 l 164 505 l 492 505 m 568 442 l 593 417 l 593 63 q 530 0 581 13 l 492 101 l 492 366 l 568 442 m 189 606 l 492 909 q 593 859 568 909 l 265 530 l 189 530 l 189 606 m 164 366 l 164 101 l 126 0 q 63 63 76 13 l 63 417 l 88 442 l 164 366 m 88 467 l 63 492 l 63 846 q 126 909 76 896 l 164 808 l 164 543 l 88 467 z "},"L":{"ha":657,"x_min":63,"x_max":593,"o":"m 164 366 l 164 101 l 126 0 q 63 63 76 13 l 63 417 l 88 442 l 164 366 m 189 101 l 492 101 l 593 63 q 530 0 581 13 l 152 0 l 189 101 m 88 467 l 63 492 l 63 846 q 126 909 76 896 l 164 808 l 164 543 l 88 467 z "},"M":{"ha":657,"x_min":63,"x_max":593,"o":"m 379 492 l 328 442 l 278 492 l 278 783 l 379 783 l 379 492 m 568 442 l 593 417 l 593 63 q 530 0 581 13 l 492 101 l 492 366 l 568 442 m 467 808 l 165 808 l 64 846 q 128 909 77 896 l 505 909 l 467 808 m 164 783 l 164 543 l 88 467 l 63 492 l 63 821 l 164 783 m 492 543 l 492 808 l 530 909 q 593 846 581 896 l 593 492 l 568 467 l 492 543 m 164 366 l 164 101 l 126 0 q 63 63 76 13 l 63 417 l 88 442 l 164 366 z "},"N":{"ha":657,"x_min":63,"x_max":593,"o":"m 164 366 l 164 101 l 126 0 q 63 63 76 13 l 63 417 l 88 442 l 164 366 m 467 530 l 379 530 l 189 720 l 189 795 l 265 795 l 467 593 l 467 530 m 568 442 l 593 417 l 593 63 q 530 0 581 13 l 492 101 l 492 366 l 568 442 m 492 530 l 492 795 l 530 896 q 593 833 581 884 l 593 480 l 568 455 l 492 530 m 88 455 l 63 480 l 63 833 q 126 896 76 884 l 164 795 l 164 530 l 88 455 z "},"O":{"ha":657,"x_min":63,"x_max":593,"o":"m 467 808 l 189 808 l 139 859 l 189 909 l 467 909 l 518 859 l 467 808 m 492 543 l 492 808 l 530 846 l 593 783 l 593 492 l 568 467 l 492 543 m 568 442 l 593 417 l 593 126 l 530 63 l 492 101 l 492 366 l 568 442 m 88 467 l 63 492 l 63 783 l 126 846 l 164 808 l 164 543 l 88 467 m 518 51 l 467 0 l 189 0 l 139 51 l 189 101 l 467 101 l 518 51 m 164 366 l 164 101 l 126 63 l 63 126 l 63 417 l 88 442 l 164 366 z "},"P":{"ha":657,"x_min":63,"x_max":593,"o":"m 492 505 l 543 455 l 492 404 l 164 404 l 114 455 l 164 505 l 492 505 m 467 808 l 164 808 l 63 846 l 63 909 l 467 909 l 518 859 l 467 808 m 164 783 l 164 543 l 88 467 l 63 492 l 63 821 l 164 783 m 492 543 l 492 808 l 530 846 l 593 783 l 593 492 l 568 467 l 492 543 m 164 366 l 164 101 l 126 0 q 63 63 76 13 l 63 417 l 88 442 l 164 366 z "},"Q":{"ha":669,"x_min":63,"x_max":606,"o":"m 568 442 l 593 417 l 593 114 l 492 215 l 492 366 l 568 442 m 480 0 l 126 0 q 63 63 76 13 l 164 101 l 379 101 l 480 0 m 63 88 l 63 417 l 88 442 l 164 366 l 164 126 l 63 88 m 467 808 l 165 808 l 64 846 q 128 909 77 896 l 505 909 l 467 808 m 164 783 l 164 543 l 88 467 l 63 492 l 63 821 l 164 783 m 492 543 l 492 808 l 530 909 q 593 846 581 896 l 593 492 l 568 467 l 492 543 m 366 227 l 442 227 l 606 63 l 606 -13 l 530 -13 l 366 152 l 366 227 z "},"R":{"ha":657,"x_min":63,"x_max":593,"o":"m 492 505 l 543 455 l 492 404 l 164 404 l 114 455 l 164 505 l 492 505 m 189 379 l 265 379 l 593 51 q 492 0 568 0 l 189 303 l 189 379 m 164 366 l 164 101 l 126 0 q 63 63 76 13 l 63 417 l 88 442 l 164 366 m 467 808 l 165 808 l 64 846 q 128 909 77 896 l 505 909 l 467 808 m 492 543 l 492 808 l 530 909 q 593 846 581 896 l 593 492 l 568 467 l 492 543 m 164 783 l 164 543 l 88 467 l 63 492 l 63 821 l 164 783 z "},"S":{"ha":657,"x_min":63,"x_max":593,"o":"m 492 505 l 543 455 l 492 404 l 164 404 l 114 455 l 164 505 l 492 505 m 568 442 l 593 417 l 593 63 q 530 0 581 13 l 492 101 l 492 366 l 568 442 m 505 0 l 126 0 q 63 63 76 13 l 164 101 l 467 101 l 505 0 m 164 783 l 164 543 l 88 467 l 63 492 l 63 821 l 164 783 m 165 808 l 64 846 q 128 909 77 896 l 530 909 q 593 846 581 896 l 492 808 l 165 808 z "},"T":{"ha":655,"x_min":63,"x_max":592,"o":"m 327 442 l 378 391 l 378 63 q 314 0 365 13 l 277 101 l 277 391 l 327 442 m 277 518 l 277 783 l 378 783 l 378 518 l 327 467 l 277 518 m 164 808 l 63 846 q 126 909 76 896 l 529 909 q 592 846 580 896 l 491 808 l 164 808 z "},"U":{"ha":657,"x_min":63,"x_max":593,"o":"m 568 442 l 593 417 l 593 63 q 530 0 581 13 l 492 101 l 492 366 l 568 442 m 505 0 l 126 0 q 63 63 76 13 l 164 101 l 467 101 l 505 0 m 63 88 l 63 417 l 88 442 l 164 366 l 164 126 l 63 88 m 492 543 l 492 808 l 530 909 q 593 846 581 896 l 593 492 l 568 467 l 492 543 m 88 455 l 63 480 l 63 833 q 126 896 76 884 l 164 795 l 164 530 l 88 455 z "},"V":{"ha":657,"x_min":63,"x_max":593,"o":"m 88 455 l 63 480 l 63 833 q 126 896 76 884 l 164 795 l 164 530 l 88 455 m 492 530 l 492 795 l 530 896 q 593 833 581 884 l 593 480 l 568 455 l 492 530 m 316 152 l 316 0 l 63 328 l 63 404 l 88 429 l 164 354 l 316 152 m 492 354 l 568 429 l 593 404 l 593 328 l 341 0 l 341 152 l 492 354 z "},"W":{"ha":657,"x_min":63,"x_max":593,"o":"m 379 126 l 278 126 l 278 417 l 328 467 l 379 417 l 379 126 m 492 543 l 492 808 l 530 909 q 593 846 581 896 l 593 492 l 568 467 l 492 543 m 505 0 l 128 0 q 64 63 77 13 l 165 101 l 467 101 l 505 0 m 63 88 l 63 417 l 88 442 l 164 366 l 164 126 l 63 88 m 568 442 l 593 417 l 593 63 q 530 0 581 13 l 492 101 l 492 366 l 568 442 m 88 467 l 63 492 l 63 846 q 126 909 76 896 l 164 808 l 164 543 l 88 467 z "},"X":{"ha":657,"x_min":63,"x_max":593,"o":"m 341 442 l 398 442 l 592 51 q 491 0 567 0 l 341 306 l 341 442 m 342 604 l 492 909 q 593 859 568 909 l 399 467 l 342 467 l 342 604 m 314 306 l 164 0 q 63 51 88 0 l 258 442 l 314 442 l 314 306 m 316 467 l 259 467 l 64 859 q 165 909 90 909 l 316 602 l 316 467 z "},"Y":{"ha":657,"x_min":63,"x_max":593,"o":"m 492 505 l 543 455 l 492 404 l 164 404 l 114 455 l 164 505 l 492 505 m 568 442 l 593 417 l 593 63 q 530 0 581 13 l 492 101 l 492 366 l 568 442 m 505 0 l 126 0 q 63 63 76 13 l 164 101 l 467 101 l 505 0 m 164 821 l 164 543 l 88 467 l 63 492 l 63 859 l 164 821 m 492 543 l 492 808 l 530 909 q 593 846 581 896 l 593 492 l 568 467 l 492 543 z "},"Z":{"ha":657,"x_min":63,"x_max":593,"o":"m 543 0 l 189 0 l 240 101 l 505 101 l 543 0 m 417 808 l 165 808 l 64 846 q 128 909 77 896 l 467 909 l 417 808 m 328 543 l 492 909 q 593 859 568 909 l 404 467 l 328 467 l 328 543 m 341 366 l 164 0 q 63 51 88 0 l 265 442 l 341 442 l 341 366 z "},"[":{"ha":391,"x_min":63,"x_max":328,"o":"m 63 88 l 63 417 l 88 442 l 164 366 l 164 126 l 63 88 m 253 808 l 165 808 l 64 846 q 128 909 77 896 l 303 909 l 328 884 l 253 808 m 164 783 l 164 543 l 88 467 l 63 492 l 63 821 l 164 783 m 328 25 l 303 0 l 128 0 q 64 63 77 13 l 165 101 l 253 101 l 328 25 z "},"\\":{"ha":654,"x_min":63,"x_max":591,"o":"m 340 442 l 396 442 l 591 51 q 490 0 566 0 l 340 306 l 340 442 m 314 467 l 258 467 l 63 859 q 164 909 88 909 l 314 602 l 314 467 z "},"]":{"ha":391,"x_min":63,"x_max":328,"o":"m 303 442 l 328 417 l 328 63 q 265 0 316 13 l 227 101 l 227 366 l 303 442 m 202 808 l 139 808 l 63 884 l 88 909 l 240 909 l 202 808 m 227 543 l 227 808 l 265 909 q 328 846 316 896 l 328 492 l 303 467 l 227 543 m 240 0 l 88 0 l 63 25 l 139 101 l 202 101 l 240 0 z "},"^":{"ha":655,"x_min":63,"x_max":592,"o":"m 340 770 l 340 909 l 592 657 l 592 606 l 543 568 l 340 770 m 112 568 l 63 606 l 63 657 l 316 909 l 314 770 l 112 568 z "},"_":{"ha":655,"x_min":63,"x_max":592,"o":"m 491 101 l 592 63 q 529 0 580 13 l 126 0 q 63 63 76 13 l 164 101 l 491 101 z "},"`":{"ha":354,"x_min":63,"x_max":290,"o":"m 290 770 l 290 720 l 240 707 l 63 884 l 76 934 l 126 934 l 290 770 z "},"a":{"ha":657,"x_min":63,"x_max":593,"o":"m 492 505 l 543 455 l 492 404 l 164 404 l 114 455 l 164 505 l 492 505 m 568 442 l 593 417 l 593 63 q 530 0 581 13 l 492 101 l 492 366 l 568 442 m 467 808 l 165 808 l 64 846 q 128 909 77 896 l 505 909 l 467 808 m 164 783 l 164 543 l 88 467 l 63 492 l 63 821 l 164 783 m 492 543 l 492 808 l 530 909 q 593 846 581 896 l 593 492 l 568 467 l 492 543 m 164 366 l 164 101 l 126 0 q 63 63 76 13 l 63 417 l 88 442 l 164 366 z "},"b":{"ha":657,"x_min":63,"x_max":593,"o":"m 492 505 l 543 455 l 492 404 l 164 404 l 114 455 l 164 505 l 492 505 m 63 88 l 63 417 l 88 442 l 164 366 l 164 126 l 63 88 m 467 808 l 164 808 l 63 846 l 63 909 l 467 909 l 518 859 l 467 808 m 164 783 l 164 543 l 88 467 l 63 492 l 63 821 l 164 783 m 492 543 l 492 808 l 530 846 l 593 783 l 593 492 l 568 467 l 492 543 m 568 442 l 593 417 l 593 126 l 530 63 l 492 101 l 492 366 l 568 442 m 516 51 l 466 0 l 63 0 l 63 63 l 164 101 l 466 101 l 516 51 z "},"c":{"ha":606,"x_min":63,"x_max":543,"o":"m 543 0 l 126 0 q 63 63 76 13 l 164 101 l 505 101 l 543 0 m 63 88 l 63 417 l 88 442 l 164 366 l 164 126 l 63 88 m 505 808 l 165 808 l 64 846 q 128 909 77 896 l 543 909 l 505 808 m 164 783 l 164 543 l 88 467 l 63 492 l 63 821 l 164 783 z "},"d":{"ha":657,"x_min":63,"x_max":593,"o":"m 63 88 l 63 417 l 88 442 l 164 366 l 164 126 l 63 88 m 467 808 l 164 808 l 63 846 l 63 909 l 467 909 l 518 859 l 467 808 m 164 783 l 164 543 l 88 467 l 63 492 l 63 821 l 164 783 m 492 543 l 492 808 l 530 846 l 593 783 l 593 492 l 568 467 l 492 543 m 568 442 l 593 417 l 593 126 l 530 63 l 492 101 l 492 366 l 568 442 m 516 51 l 466 0 l 63 0 l 63 63 l 164 101 l 466 101 l 516 51 z "},"e":{"ha":606,"x_min":63,"x_max":543,"o":"m 492 505 l 543 455 l 492 404 l 164 404 l 114 455 l 164 505 l 492 505 m 543 0 l 126 0 q 63 63 76 13 l 164 101 l 505 101 l 543 0 m 63 88 l 63 417 l 88 442 l 164 366 l 164 126 l 63 88 m 505 808 l 165 808 l 64 846 q 128 909 77 896 l 543 909 l 505 808 m 164 783 l 164 543 l 88 467 l 63 492 l 63 821 l 164 783 z "},"f":{"ha":606,"x_min":63,"x_max":543,"o":"m 492 505 l 543 455 l 492 404 l 164 404 l 114 455 l 164 505 l 492 505 m 505 808 l 165 808 l 64 846 q 128 909 77 896 l 543 909 l 505 808 m 164 783 l 164 543 l 88 467 l 63 492 l 63 821 l 164 783 m 164 366 l 164 101 l 126 0 q 63 63 76 13 l 63 417 l 88 442 l 164 366 z "},"g":{"ha":657,"x_min":63,"x_max":593,"o":"m 492 505 l 543 455 l 492 404 l 379 404 l 328 455 l 379 505 l 492 505 m 568 442 l 593 417 l 593 63 q 530 0 581 13 l 492 101 l 492 366 l 568 442 m 505 0 l 126 0 q 63 63 76 13 l 164 101 l 467 101 l 505 0 m 63 88 l 63 417 l 88 442 l 164 366 l 164 126 l 63 88 m 505 808 l 165 808 l 64 846 q 128 909 77 896 l 543 909 l 505 808 m 164 783 l 164 543 l 88 467 l 63 492 l 63 821 l 164 783 z "},"h":{"ha":657,"x_min":63,"x_max":593,"o":"m 492 505 l 543 455 l 492 404 l 164 404 l 114 455 l 164 505 l 492 505 m 568 442 l 593 417 l 593 63 q 530 0 581 13 l 492 101 l 492 366 l 568 442 m 492 543 l 492 808 l 530 909 q 593 846 581 896 l 593 492 l 568 467 l 492 543 m 164 366 l 164 101 l 126 0 q 63 63 76 13 l 63 417 l 88 442 l 164 366 m 88 455 l 63 480 l 63 833 q 126 896 76 884 l 164 795 l 164 530 l 88 455 z "},"i":{"ha":227,"x_min":63,"x_max":164,"o":"m 63 543 l 63 808 l 101 909 q 164 846 152 896 l 164 492 l 139 467 l 63 543 m 139 455 l 164 429 l 164 76 q 101 13 152 25 l 63 114 l 63 379 l 139 455 z "},"j":{"ha":657,"x_min":63,"x_max":593,"o":"m 568 442 l 593 417 l 593 63 q 530 0 581 13 l 492 101 l 492 366 l 568 442 m 505 0 l 126 0 q 63 63 76 13 l 164 101 l 467 101 l 505 0 m 63 88 l 63 417 l 88 442 l 164 366 l 164 126 l 63 88 m 492 543 l 492 808 l 530 909 q 593 846 581 896 l 593 492 l 568 467 l 492 543 z "},"k":{"ha":657,"x_min":63,"x_max":593,"o":"m 492 505 l 543 455 l 492 404 l 164 404 l 114 455 l 164 505 l 492 505 m 568 442 l 593 417 l 593 63 q 530 0 581 13 l 492 101 l 492 366 l 568 442 m 189 606 l 492 909 q 593 859 568 909 l 265 530 l 189 530 l 189 606 m 164 366 l 164 101 l 126 0 q 63 63 76 13 l 63 417 l 88 442 l 164 366 m 88 467 l 63 492 l 63 846 q 126 909 76 896 l 164 808 l 164 543 l 88 467 z "},"l":{"ha":657,"x_min":63,"x_max":593,"o":"m 164 366 l 164 101 l 126 0 q 63 63 76 13 l 63 417 l 88 442 l 164 366 m 189 101 l 492 101 l 593 63 q 530 0 581 13 l 152 0 l 189 101 m 88 467 l 63 492 l 63 846 q 126 909 76 896 l 164 808 l 164 543 l 88 467 z "},"m":{"ha":657,"x_min":63,"x_max":593,"o":"m 379 492 l 328 442 l 278 492 l 278 783 l 379 783 l 379 492 m 568 442 l 593 417 l 593 63 q 530 0 581 13 l 492 101 l 492 366 l 568 442 m 467 808 l 165 808 l 64 846 q 128 909 77 896 l 505 909 l 467 808 m 164 783 l 164 543 l 88 467 l 63 492 l 63 821 l 164 783 m 492 543 l 492 808 l 530 909 q 593 846 581 896 l 593 492 l 568 467 l 492 543 m 164 366 l 164 101 l 126 0 q 63 63 76 13 l 63 417 l 88 442 l 164 366 z "},"n":{"ha":657,"x_min":63,"x_max":593,"o":"m 164 366 l 164 101 l 126 0 q 63 63 76 13 l 63 417 l 88 442 l 164 366 m 467 530 l 379 530 l 189 720 l 189 795 l 265 795 l 467 593 l 467 530 m 568 442 l 593 417 l 593 63 q 530 0 581 13 l 492 101 l 492 366 l 568 442 m 492 530 l 492 795 l 530 896 q 593 833 581 884 l 593 480 l 568 455 l 492 530 m 88 455 l 63 480 l 63 833 q 126 896 76 884 l 164 795 l 164 530 l 88 455 z "},"o":{"ha":657,"x_min":63,"x_max":593,"o":"m 467 808 l 189 808 l 139 859 l 189 909 l 467 909 l 518 859 l 467 808 m 492 543 l 492 808 l 530 846 l 593 783 l 593 492 l 568 467 l 492 543 m 568 442 l 593 417 l 593 126 l 530 63 l 492 101 l 492 366 l 568 442 m 88 467 l 63 492 l 63 783 l 126 846 l 164 808 l 164 543 l 88 467 m 518 51 l 467 0 l 189 0 l 139 51 l 189 101 l 467 101 l 518 51 m 164 366 l 164 101 l 126 63 l 63 126 l 63 417 l 88 442 l 164 366 z "},"p":{"ha":657,"x_min":63,"x_max":593,"o":"m 492 505 l 543 455 l 492 404 l 164 404 l 114 455 l 164 505 l 492 505 m 467 808 l 164 808 l 63 846 l 63 909 l 467 909 l 518 859 l 467 808 m 164 783 l 164 543 l 88 467 l 63 492 l 63 821 l 164 783 m 492 543 l 492 808 l 530 846 l 593 783 l 593 492 l 568 467 l 492 543 m 164 366 l 164 101 l 126 0 q 63 63 76 13 l 63 417 l 88 442 l 164 366 z "},"q":{"ha":669,"x_min":63,"x_max":606,"o":"m 568 442 l 593 417 l 593 114 l 492 215 l 492 366 l 568 442 m 480 0 l 126 0 q 63 63 76 13 l 164 101 l 379 101 l 480 0 m 63 88 l 63 417 l 88 442 l 164 366 l 164 126 l 63 88 m 467 808 l 165 808 l 64 846 q 128 909 77 896 l 505 909 l 467 808 m 164 783 l 164 543 l 88 467 l 63 492 l 63 821 l 164 783 m 492 543 l 492 808 l 530 909 q 593 846 581 896 l 593 492 l 568 467 l 492 543 m 366 227 l 442 227 l 606 63 l 606 -13 l 530 -13 l 366 152 l 366 227 z "},"r":{"ha":657,"x_min":63,"x_max":593,"o":"m 492 505 l 543 455 l 492 404 l 164 404 l 114 455 l 164 505 l 492 505 m 189 379 l 265 379 l 593 51 q 492 0 568 0 l 189 303 l 189 379 m 164 366 l 164 101 l 126 0 q 63 63 76 13 l 63 417 l 88 442 l 164 366 m 467 808 l 165 808 l 64 846 q 128 909 77 896 l 505 909 l 467 808 m 492 543 l 492 808 l 530 909 q 593 846 581 896 l 593 492 l 568 467 l 492 543 m 164 783 l 164 543 l 88 467 l 63 492 l 63 821 l 164 783 z "},"s":{"ha":657,"x_min":63,"x_max":593,"o":"m 492 505 l 543 455 l 492 404 l 164 404 l 114 455 l 164 505 l 492 505 m 568 442 l 593 417 l 593 63 q 530 0 581 13 l 492 101 l 492 366 l 568 442 m 505 0 l 126 0 q 63 63 76 13 l 164 101 l 467 101 l 505 0 m 164 783 l 164 543 l 88 467 l 63 492 l 63 821 l 164 783 m 165 808 l 64 846 q 128 909 77 896 l 530 909 q 593 846 581 896 l 492 808 l 165 808 z "},"t":{"ha":655,"x_min":63,"x_max":592,"o":"m 327 442 l 378 391 l 378 63 q 314 0 365 13 l 277 101 l 277 391 l 327 442 m 277 518 l 277 783 l 378 783 l 378 518 l 327 467 l 277 518 m 164 808 l 63 846 q 126 909 76 896 l 529 909 q 592 846 580 896 l 491 808 l 164 808 z "},"u":{"ha":657,"x_min":63,"x_max":593,"o":"m 568 442 l 593 417 l 593 63 q 530 0 581 13 l 492 101 l 492 366 l 568 442 m 505 0 l 126 0 q 63 63 76 13 l 164 101 l 467 101 l 505 0 m 63 88 l 63 417 l 88 442 l 164 366 l 164 126 l 63 88 m 492 543 l 492 808 l 530 909 q 593 846 581 896 l 593 492 l 568 467 l 492 543 m 88 455 l 63 480 l 63 833 q 126 896 76 884 l 164 795 l 164 530 l 88 455 z "},"v":{"ha":657,"x_min":63,"x_max":593,"o":"m 88 455 l 63 480 l 63 833 q 126 896 76 884 l 164 795 l 164 530 l 88 455 m 492 530 l 492 795 l 530 896 q 593 833 581 884 l 593 480 l 568 455 l 492 530 m 316 152 l 316 0 l 63 328 l 63 404 l 88 429 l 164 354 l 316 152 m 492 354 l 568 429 l 593 404 l 593 328 l 341 0 l 341 152 l 492 354 z "},"w":{"ha":657,"x_min":63,"x_max":593,"o":"m 379 126 l 278 126 l 278 417 l 328 467 l 379 417 l 379 126 m 492 543 l 492 808 l 530 909 q 593 846 581 896 l 593 492 l 568 467 l 492 543 m 505 0 l 128 0 q 64 63 77 13 l 165 101 l 467 101 l 505 0 m 63 88 l 63 417 l 88 442 l 164 366 l 164 126 l 63 88 m 568 442 l 593 417 l 593 63 q 530 0 581 13 l 492 101 l 492 366 l 568 442 m 88 467 l 63 492 l 63 846 q 126 909 76 896 l 164 808 l 164 543 l 88 467 z "},"x":{"ha":657,"x_min":63,"x_max":593,"o":"m 341 442 l 398 442 l 592 51 q 491 0 567 0 l 341 306 l 341 442 m 342 604 l 492 909 q 593 859 568 909 l 399 467 l 342 467 l 342 604 m 314 306 l 164 0 q 63 51 88 0 l 258 442 l 314 442 l 314 306 m 316 467 l 259 467 l 64 859 q 165 909 90 909 l 316 602 l 316 467 z "},"y":{"ha":657,"x_min":63,"x_max":593,"o":"m 492 505 l 543 455 l 492 404 l 164 404 l 114 455 l 164 505 l 492 505 m 568 442 l 593 417 l 593 63 q 530 0 581 13 l 492 101 l 492 366 l 568 442 m 505 0 l 126 0 q 63 63 76 13 l 164 101 l 467 101 l 505 0 m 164 821 l 164 543 l 88 467 l 63 492 l 63 859 l 164 821 m 492 543 l 492 808 l 530 909 q 593 846 581 896 l 593 492 l 568 467 l 492 543 z "},"z":{"ha":657,"x_min":63,"x_max":593,"o":"m 543 0 l 189 0 l 240 101 l 505 101 l 543 0 m 417 808 l 165 808 l 64 846 q 128 909 77 896 l 467 909 l 417 808 m 328 543 l 492 909 q 593 859 568 909 l 404 467 l 328 467 l 328 543 m 341 366 l 164 0 q 63 51 88 0 l 265 442 l 341 442 l 341 366 z "},"{":{"ha":543,"x_min":63,"x_max":480,"o":"m 215 88 l 215 366 l 290 442 l 316 417 l 316 126 l 215 88 m 404 808 l 317 808 l 216 846 q 279 909 229 896 l 455 909 l 480 884 l 404 808 m 316 783 l 316 492 l 290 467 l 215 543 l 215 821 l 316 783 m 480 25 l 455 0 l 279 0 q 216 63 229 13 l 317 101 l 404 101 l 480 25 m 202 505 l 253 455 l 202 404 l 114 404 l 63 455 l 114 505 l 202 505 z "},"|":{"ha":227,"x_min":63,"x_max":164,"o":"m 164 63 q 101 0 152 13 l 63 101 l 63 808 l 101 909 q 164 846 152 896 l 164 63 z "},"}":{"ha":543,"x_min":63,"x_max":480,"o":"m 227 126 l 227 417 l 253 442 l 328 366 l 328 88 l 227 126 m 63 884 l 88 909 l 264 909 q 327 846 314 896 l 226 808 l 139 808 l 63 884 m 328 821 l 328 543 l 253 467 l 227 492 l 227 783 l 328 821 m 139 101 l 226 101 l 327 63 q 264 0 314 13 l 88 0 l 63 25 l 139 101 m 429 505 l 480 455 l 429 404 l 341 404 l 290 455 l 341 505 l 429 505 z "},"~":{"ha":682,"x_min":63,"x_max":619,"o":"m 366 606 l 417 556 l 366 505 l 316 505 l 265 556 l 316 606 l 366 606 m 164 605 l 215 554 l 164 504 l 114 504 l 63 554 l 114 605 l 164 605 m 568 606 l 619 556 l 568 505 l 518 505 l 467 556 l 518 606 l 568 606 m 265 682 l 316 631 l 265 581 l 215 581 l 164 631 l 215 682 l 265 682 m 467 518 l 518 467 l 467 417 l 417 417 l 366 467 l 417 518 l 467 518 z "},"‰":{"ha":745,"x_min":63,"x_max":682,"o":"m 352 504 l 150 303 q 76 378 74 302 l 314 617 l 352 617 l 352 504 m 177 808 l 164 808 l 63 846 q 126 909 76 896 l 215 909 l 177 808 m 164 783 l 164 707 l 126 606 q 63 669 76 619 l 63 821 l 164 783 m 189 707 l 202 707 l 303 669 q 240 606 290 619 l 152 606 l 189 707 m 202 732 l 202 808 l 240 909 q 303 846 290 896 l 303 694 l 202 732 m 556 202 l 543 202 l 442 240 q 505 303 455 290 l 593 303 l 556 202 m 544 177 l 544 101 l 506 0 q 443 63 456 13 l 443 215 l 544 177 m 568 101 l 581 101 l 682 63 q 619 0 669 13 l 530 0 l 568 101 m 581 126 l 581 202 l 619 303 q 682 240 669 290 l 682 88 l 581 126 m 290 126 l 290 202 l 328 303 q 391 240 379 290 l 391 88 l 290 126 m 278 100 l 290 100 l 391 62 q 328 -1 379 11 l 240 -1 l 278 100 m 253 177 l 253 101 l 215 0 q 152 63 164 13 l 152 215 l 253 177 m 265 202 l 253 202 l 152 240 q 215 303 164 290 l 303 303 l 265 202 m 366 670 l 568 871 q 643 797 644 872 l 404 556 l 366 557 l 366 670 z "},"‘":{"ha":227,"x_min":63,"x_max":164,"o":"m 164 657 l 63 657 l 63 859 l 114 909 l 164 859 l 164 657 z "},"’":{"ha":227,"x_min":63,"x_max":164,"o":"m 164 707 l 114 657 l 63 707 l 63 909 l 164 909 l 164 707 z "},"“":{"ha":429,"x_min":63,"x_max":366,"o":"m 164 658 l 63 658 l 63 860 l 114 910 l 164 860 l 164 658 m 366 657 l 265 657 l 265 859 l 316 909 l 366 859 l 366 657 z "},"”":{"ha":431,"x_min":63,"x_max":367,"o":"m 164 707 l 114 657 l 63 707 l 63 909 l 164 909 l 164 707 m 367 708 l 317 658 l 266 708 l 266 910 l 367 910 l 367 708 z "},"•":{"ha":492,"x_min":63,"x_max":429,"o":"m 246 278 q 117 331 170 278 q 63 461 63 385 q 117 590 63 537 q 246 644 170 644 q 376 590 322 644 q 429 461 429 537 q 376 331 429 385 q 246 278 322 278 z "},"–":{"ha":682,"x_min":63,"x_max":619,"o":"m 568 505 l 619 455 l 568 404 l 114 404 l 63 455 l 114 505 l 568 505 z "},"—":{"ha":732,"x_min":63,"x_max":669,"o":"m 619 505 l 669 455 l 619 404 l 114 404 l 63 455 l 114 505 l 619 505 z "},"©":{"ha":732,"x_min":63,"x_max":669,"o":"m 581 0 l 126 0 q 63 63 76 13 l 164 101 l 543 101 l 581 0 m 543 808 l 165 808 l 64 846 q 128 909 77 896 l 581 909 l 543 808 m 164 126 l 63 88 l 63 821 l 164 783 l 164 126 m 669 63 q 606 0 657 13 l 568 101 l 568 808 l 606 909 q 669 846 657 896 l 669 63 m 480 606 l 316 606 l 215 644 q 278 707 227 694 l 518 707 l 480 606 m 316 581 l 316 303 l 278 202 q 215 265 227 215 l 215 619 l 316 581 m 341 303 l 417 303 l 518 265 q 455 202 505 215 l 303 202 l 341 303 z "}}}
